<svg width="24" height="24" viewBox="0 0 24 24" fill="none" xmlns="http://www.w3.org/2000/svg">
<path d="M20.5021 5H3.49785C2.67059 5 2 5.67059 2 6.49785V16.6056C2 17.4329 2.67059 18.1035 3.49785 18.1035H20.5021C21.3294 18.1035 22 17.4329 22 16.6056V6.49785C22 5.67059 21.3294 5 20.5021 5Z" fill="#F5F5F5"/>
<path d="M2.0824 6.00797H21.9176C21.7146 5.42137 21.1577 5 20.5022 5H3.49787C2.84224 5 2.28541 5.42137 2.0824 6.00797Z" fill="#FF4B55"/>
<path d="M22 9.03159H2V10.0395H22V9.03159Z" fill="#FF4B55"/>
<path d="M22 7.01578H2V8.02371H22V7.01578Z" fill="#FF4B55"/>
<path d="M2 11.7105C2 11.9009 2.15441 12.0553 2.34484 12.0553H22V11.0474H2V11.7105Z" fill="#FF4B55"/>
<path d="M22 15.0797H2V16.0877H22V15.0797Z" fill="#FF4B55"/>
<path d="M21.9176 17.0956H2.0824C2.28541 17.6822 2.84228 18.1035 3.49787 18.1035H20.5022C21.1578 18.1035 21.7146 17.6822 21.9176 17.0956Z" fill="#FF4B55"/>
<path d="M22 13.064H2V14.0719H22V13.064Z" fill="#FF4B55"/>
<path d="M2.34484 12.0557H10.9655C11.156 12.0557 11.3104 11.9013 11.3104 11.7109V5.34484C11.3104 5.15437 11.156 5 10.9655 5H3.49785C2.67059 5.00004 2 5.67063 2 6.49789V11.7109C2 11.9014 2.15441 12.0557 2.34484 12.0557Z" fill="#41479B"/>
<path d="M2.96828 5.79176L3.04461 6.02067L3.2859 6.0225C3.31715 6.02278 3.33007 6.06262 3.30496 6.08118L3.11086 6.2245L3.18367 6.45454C3.19312 6.4843 3.15918 6.50899 3.13375 6.49079L2.93746 6.35051L2.74117 6.49083C2.71574 6.50903 2.68187 6.48434 2.69125 6.45458L2.76406 6.22454L2.56996 6.08122C2.54484 6.06262 2.55777 6.02278 2.58902 6.02254L2.83031 6.02071L2.90664 5.7918C2.91648 5.76211 2.95836 5.76211 2.96828 5.79176Z" fill="#F5F5F5"/>
<path d="M2.96828 6.98885L3.04461 7.21775L3.2859 7.21959C3.31715 7.21986 3.33007 7.25967 3.30496 7.27826L3.11086 7.42162L3.18367 7.65166C3.19312 7.68142 3.15918 7.70611 3.13375 7.68791L2.93746 7.54764L2.74117 7.68795C2.71574 7.70611 2.68187 7.68146 2.69125 7.6517L2.76406 7.42166L2.56996 7.2783C2.54484 7.25971 2.55777 7.2199 2.58902 7.21963L2.83031 7.21779L2.90664 6.98889C2.91648 6.95924 2.95836 6.95924 2.96828 6.98885Z" fill="#F5F5F5"/>
<path d="M2.96828 8.18678L3.04461 8.41569L3.2859 8.41752C3.31715 8.4178 3.33007 8.4576 3.30496 8.4762L3.11086 8.61956L3.18367 8.84959C3.19312 8.87936 3.15918 8.90405 3.13375 8.88585L2.93746 8.74557L2.74117 8.88588C2.71574 8.90405 2.68187 8.87944 2.69125 8.84963L2.76406 8.61959L2.56996 8.47624C2.54484 8.45764 2.55777 8.41784 2.58902 8.41756L2.83031 8.41573L2.90664 8.18682C2.91648 8.15713 2.95836 8.15713 2.96828 8.18678Z" fill="#F5F5F5"/>
<path d="M2.96828 9.3839L3.04461 9.6128L3.2859 9.61464C3.31715 9.61491 3.33007 9.65475 3.30496 9.67331L3.11086 9.81667L3.18367 10.0467C3.19312 10.0765 3.15918 10.1012 3.13375 10.083L2.93746 9.94268L2.74117 10.083C2.71574 10.1012 2.68187 10.0765 2.69125 10.0467L2.76406 9.81671L2.56996 9.67335C2.54484 9.65483 2.55777 9.61495 2.58902 9.61468L2.83031 9.61284L2.90664 9.38393C2.91648 9.35425 2.95836 9.35425 2.96828 9.3839Z" fill="#F5F5F5"/>
<path d="M2.96828 10.5818L3.04461 10.8107L3.2859 10.8125C3.31715 10.8128 3.33007 10.8526 3.30496 10.8712L3.11086 11.0145L3.18367 11.2446C3.19312 11.2744 3.15918 11.299 3.13375 11.2808L2.93746 11.1406L2.74117 11.2809C2.71574 11.299 2.68187 11.2744 2.69125 11.2446L2.76406 11.0146L2.56996 10.8712C2.54484 10.8526 2.55777 10.8128 2.58902 10.8126L2.83031 10.8107L2.90664 10.5818C2.91648 10.5522 2.95836 10.5522 2.96828 10.5818Z" fill="#F5F5F5"/>
<path d="M3.89772 6.3785L3.97405 6.60741L4.21534 6.60924C4.24659 6.60952 4.25952 6.64936 4.2344 6.66791L4.0403 6.81127L4.11311 7.04131C4.12257 7.07108 4.08862 7.09577 4.06319 7.07756L3.8669 6.93725L3.67061 7.07756C3.64518 7.09573 3.61132 7.07108 3.62069 7.04131L3.6935 6.81127L3.4994 6.66791C3.47428 6.64932 3.48721 6.60952 3.51846 6.60924L3.75975 6.60741L3.83608 6.3785C3.84592 6.34889 3.88784 6.34889 3.89772 6.3785Z" fill="#F5F5F5"/>
<path d="M3.89772 7.57644L3.97405 7.80534L4.21534 7.80718C4.24659 7.80745 4.25952 7.8473 4.2344 7.86585L4.0403 8.00921L4.11311 8.23925C4.12257 8.26901 4.08862 8.2937 4.06319 8.2755L3.8669 8.13519L3.67061 8.2755C3.64518 8.29366 3.61132 8.26905 3.62069 8.23925L3.6935 8.00921L3.4994 7.86585C3.47428 7.84733 3.48721 7.80745 3.51846 7.80718L3.75975 7.80534L3.83608 7.57644C3.84592 7.54679 3.88784 7.54679 3.89772 7.57644Z" fill="#F5F5F5"/>
<path d="M3.89772 8.77355L3.97405 9.00245L4.21534 9.00429C4.24659 9.00456 4.25952 9.04437 4.2344 9.06296L4.0403 9.20632L4.11311 9.43636C4.12257 9.46613 4.08862 9.49081 4.06319 9.47261L3.8669 9.3323L3.67061 9.47261C3.64518 9.49077 3.61132 9.46613 3.62069 9.43636L3.6935 9.20632L3.4994 9.06296C3.47428 9.04437 3.48721 9.00456 3.51846 9.00429L3.75975 9.00245L3.83608 8.77355C3.84592 8.7439 3.88784 8.7439 3.89772 8.77355Z" fill="#F5F5F5"/>
<path d="M3.89772 9.97143L3.97405 10.2003L4.21534 10.2022C4.24659 10.2024 4.25952 10.2422 4.2344 10.2608L4.0403 10.4042L4.11311 10.6342C4.12257 10.664 4.08862 10.6887 4.06319 10.6705L3.8669 10.5302L3.67061 10.6705C3.64518 10.6887 3.61132 10.664 3.62069 10.6342L3.6935 10.4042L3.4994 10.2608C3.47428 10.2422 3.48721 10.2024 3.51846 10.2022L3.75975 10.2003L3.83608 9.97143C3.84592 9.94182 3.88784 9.94182 3.89772 9.97143Z" fill="#F5F5F5"/>
<path d="M4.8271 5.79177L4.90343 6.02067L5.14472 6.02251C5.17597 6.02278 5.1889 6.06263 5.16378 6.08118L4.96968 6.2245L5.04249 6.45454C5.05195 6.48431 5.018 6.50899 4.99257 6.49079L4.79628 6.35048L4.59999 6.49079C4.57456 6.50899 4.5407 6.48431 4.55007 6.45454L4.62289 6.2245L4.42878 6.08118C4.40367 6.06259 4.4166 6.02274 4.44785 6.02251L4.68914 6.02067L4.76546 5.79177C4.77531 5.76212 4.81722 5.76212 4.8271 5.79177Z" fill="#F5F5F5"/>
<path d="M4.8271 6.98885L4.90343 7.21776L5.14472 7.21959C5.17597 7.21987 5.1889 7.25967 5.16378 7.27827L4.96968 7.42163L5.04249 7.65166C5.05195 7.68143 5.018 7.70612 4.99257 7.68791L4.79628 7.5476L4.59999 7.68791C4.57456 7.70608 4.5407 7.68143 4.55007 7.65166L4.62289 7.42163L4.42878 7.27827C4.40367 7.25967 4.4166 7.21987 4.44785 7.21959L4.68914 7.21776L4.76546 6.98885C4.77531 6.95924 4.81722 6.95924 4.8271 6.98885Z" fill="#F5F5F5"/>
<path d="M4.8271 8.18679L4.90343 8.41569L5.14472 8.41753C5.17597 8.4178 5.1889 8.45761 5.16378 8.4762L4.96968 8.61956L5.04249 8.8496C5.05195 8.87937 5.018 8.90405 4.99257 8.88585L4.79628 8.74554L4.59999 8.88585C4.57456 8.90401 4.5407 8.8794 4.55007 8.8496L4.62289 8.61956L4.42878 8.4762C4.40367 8.45761 4.4166 8.4178 4.44785 8.41753L4.68914 8.41569L4.76546 8.18679C4.77531 8.15714 4.81722 8.15714 4.8271 8.18679Z" fill="#F5F5F5"/>
<path d="M4.8271 9.3839L4.90343 9.61281L5.14472 9.61464C5.17597 9.61492 5.1889 9.65476 5.16378 9.67331L4.96968 9.81667L5.04249 10.0467C5.05195 10.0765 5.018 10.1012 4.99257 10.083L4.79628 9.94265L4.59999 10.083C4.57456 10.1011 4.5407 10.0765 4.55007 10.0467L4.62289 9.81667L4.42878 9.67331C4.40367 9.6548 4.4166 9.61492 4.44785 9.61464L4.68914 9.61281L4.76546 9.3839C4.77531 9.35425 4.81722 9.35425 4.8271 9.3839Z" fill="#F5F5F5"/>
<path d="M4.8271 10.5818L4.90343 10.8107L5.14472 10.8125C5.17597 10.8128 5.1889 10.8526 5.16378 10.8712L4.96968 11.0146L5.04249 11.2446C5.05195 11.2744 5.018 11.299 4.99257 11.2808L4.79628 11.1405L4.59999 11.2808C4.57456 11.299 4.5407 11.2744 4.55007 11.2446L4.62289 11.0146L4.42878 10.8712C4.40367 10.8526 4.4166 10.8128 4.44785 10.8125L4.68914 10.8107L4.76546 10.5818C4.77531 10.5522 4.81722 10.5522 4.8271 10.5818Z" fill="#F5F5F5"/>
<path d="M5.75655 6.3785L5.83288 6.60741L6.07416 6.60924C6.10541 6.60952 6.11834 6.64936 6.09323 6.66791L5.89913 6.81127L5.97194 7.04131C5.98139 7.07108 5.94745 7.09577 5.92202 7.07756L5.72573 6.93725L5.52944 7.07756C5.50401 7.09573 5.47014 7.07108 5.47952 7.04131L5.55233 6.81127L5.35823 6.66791C5.33311 6.64932 5.34604 6.60952 5.37729 6.60924L5.61858 6.60741L5.69491 6.3785C5.70471 6.34889 5.74666 6.34889 5.75655 6.3785Z" fill="#F5F5F5"/>
<path d="M5.75655 7.57644L5.83288 7.80534L6.07416 7.80718C6.10541 7.80745 6.11834 7.8473 6.09323 7.86585L5.89913 8.00921L5.97194 8.23925C5.98139 8.26901 5.94745 8.2937 5.92202 8.2755L5.72573 8.13519L5.52944 8.2755C5.50401 8.29366 5.47014 8.26905 5.47952 8.23925L5.55233 8.00921L5.35823 7.86585C5.33311 7.84733 5.34604 7.80745 5.37729 7.80718L5.61858 7.80534L5.69491 7.57644C5.70471 7.54679 5.74666 7.54679 5.75655 7.57644Z" fill="#F5F5F5"/>
<path d="M5.75655 8.77355L5.83288 9.00245L6.07416 9.00429C6.10541 9.00456 6.11834 9.04437 6.09323 9.06296L5.89913 9.20632L5.97194 9.43636C5.98139 9.46613 5.94745 9.49081 5.92202 9.47261L5.72573 9.3323L5.52944 9.47261C5.50401 9.49077 5.47014 9.46613 5.47952 9.43636L5.55233 9.20632L5.35823 9.06296C5.33311 9.04437 5.34604 9.00456 5.37729 9.00429L5.61858 9.00245L5.69491 8.77355C5.70471 8.7439 5.74666 8.7439 5.75655 8.77355Z" fill="#F5F5F5"/>
<path d="M5.75655 9.97143L5.83288 10.2003L6.07416 10.2022C6.10541 10.2024 6.11834 10.2422 6.09323 10.2608L5.89913 10.4042L5.97194 10.6342C5.98139 10.664 5.94745 10.6887 5.92202 10.6705L5.72573 10.5302L5.52944 10.6705C5.50401 10.6887 5.47014 10.664 5.47952 10.6342L5.55233 10.4042L5.35823 10.2608C5.33311 10.2422 5.34604 10.2024 5.37729 10.2022L5.61858 10.2003L5.69491 9.97143C5.70471 9.94182 5.74666 9.94182 5.75655 9.97143Z" fill="#F5F5F5"/>
<path d="M6.68597 5.79176L6.7623 6.02067L7.00359 6.0225C7.03484 6.02278 7.04777 6.06262 7.02265 6.08118L6.82855 6.2245L6.90136 6.45454C6.91081 6.4843 6.87687 6.50899 6.85144 6.49079L6.65511 6.35051L6.45882 6.49083C6.43339 6.50903 6.39952 6.48434 6.4089 6.45458L6.48171 6.22454L6.28761 6.08122C6.26249 6.06262 6.27542 6.02278 6.30667 6.02254L6.54796 6.02071L6.62429 5.7918C6.63417 5.76211 6.67609 5.76211 6.68597 5.79176Z" fill="#F5F5F5"/>
<path d="M6.68597 6.98885L6.7623 7.21776L7.00359 7.21959C7.03484 7.21987 7.04777 7.25967 7.02265 7.27827L6.82855 7.42163L6.90136 7.65166C6.91081 7.68143 6.87687 7.70612 6.85144 7.68791L6.65511 7.5476L6.45882 7.68791C6.43339 7.70608 6.39952 7.68143 6.4089 7.65166L6.48171 7.42163L6.28761 7.27827C6.26249 7.25967 6.27542 7.21987 6.30667 7.21959L6.54796 7.21776L6.62429 6.98885C6.63417 6.95924 6.67609 6.95924 6.68597 6.98885Z" fill="#F5F5F5"/>
<path d="M6.68597 8.18679L6.7623 8.4157L7.00359 8.41753C7.03484 8.41781 7.04777 8.45761 7.02265 8.47621L6.82855 8.61957L6.90136 8.8496C6.91081 8.87937 6.87687 8.90406 6.85144 8.88585L6.65511 8.7455L6.45882 8.88582C6.43339 8.90398 6.39952 8.87933 6.4089 8.84957L6.48171 8.61953L6.28761 8.47617C6.26249 8.45757 6.27542 8.41777 6.30667 8.4175L6.54796 8.41566L6.62429 8.18675C6.63417 8.15714 6.67609 8.15714 6.68597 8.18679Z" fill="#F5F5F5"/>
<path d="M6.68597 9.3839L6.7623 9.61281L7.00359 9.61464C7.03484 9.61492 7.04777 9.65476 7.02265 9.67331L6.82855 9.81667L6.90136 10.0467C6.91081 10.0765 6.87687 10.1012 6.85144 10.083L6.65511 9.94265L6.45882 10.083C6.43339 10.1011 6.39952 10.0765 6.4089 10.0467L6.48171 9.81667L6.28761 9.67331C6.26249 9.6548 6.27542 9.61492 6.30667 9.61464L6.54796 9.61281L6.62429 9.3839C6.63417 9.35425 6.67609 9.35425 6.68597 9.3839Z" fill="#F5F5F5"/>
<path d="M6.68597 10.5818L6.7623 10.8107L7.00359 10.8125C7.03484 10.8128 7.04777 10.8526 7.02265 10.8712L6.82855 11.0146L6.90136 11.2446C6.91081 11.2744 6.87687 11.299 6.85144 11.2808L6.65511 11.1405L6.45882 11.2808C6.43339 11.299 6.39952 11.2744 6.4089 11.2446L6.48171 11.0146L6.28761 10.8712C6.26249 10.8526 6.27542 10.8128 6.30667 10.8125L6.54796 10.8107L6.62429 10.5818C6.63417 10.5522 6.67609 10.5522 6.68597 10.5818Z" fill="#F5F5F5"/>
<path d="M7.61537 6.3785L7.6917 6.60741L7.93299 6.60924C7.96424 6.60952 7.97717 6.64936 7.95205 6.66791L7.75795 6.81127L7.83076 7.04131C7.84022 7.07108 7.80627 7.09577 7.78084 7.07756L7.58455 6.93725L7.38826 7.07756C7.36283 7.09573 7.32897 7.07108 7.33834 7.04131L7.41115 6.81127L7.21705 6.66791C7.19194 6.64932 7.20487 6.60952 7.23612 6.60924L7.4774 6.60741L7.55373 6.3785C7.56362 6.34889 7.60549 6.34889 7.61537 6.3785Z" fill="#F5F5F5"/>
<path d="M7.61537 7.57644L7.6917 7.80534L7.93299 7.80718C7.96424 7.80745 7.97717 7.8473 7.95205 7.86585L7.75795 8.00921L7.83076 8.23925C7.84022 8.26901 7.80627 8.2937 7.78084 8.2755L7.58455 8.13519L7.38826 8.2755C7.36283 8.29366 7.32897 8.26905 7.33834 8.23925L7.41115 8.00921L7.21705 7.86585C7.19194 7.84733 7.20487 7.80745 7.23612 7.80718L7.4774 7.80534L7.55373 7.57644C7.56362 7.54679 7.60549 7.54679 7.61537 7.57644Z" fill="#F5F5F5"/>
<path d="M7.61537 8.77355L7.6917 9.00245L7.93299 9.00429C7.96424 9.00456 7.97717 9.04437 7.95205 9.06296L7.75795 9.20632L7.83076 9.43636C7.84022 9.46613 7.80627 9.49081 7.78084 9.47261L7.58455 9.3323L7.38826 9.47261C7.36283 9.49077 7.32897 9.46613 7.33834 9.43636L7.41115 9.20632L7.21705 9.06296C7.19194 9.04437 7.20487 9.00456 7.23612 9.00429L7.4774 9.00245L7.55373 8.77355C7.56362 8.7439 7.60549 8.7439 7.61537 8.77355Z" fill="#F5F5F5"/>
<path d="M7.61537 9.97143L7.6917 10.2003L7.93299 10.2022C7.96424 10.2024 7.97717 10.2422 7.95205 10.2608L7.75795 10.4042L7.83076 10.6342C7.84022 10.664 7.80627 10.6887 7.78084 10.6705L7.58455 10.5302L7.38826 10.6705C7.36283 10.6887 7.32897 10.664 7.33834 10.6342L7.41115 10.4042L7.21705 10.2608C7.19194 10.2422 7.20487 10.2024 7.23612 10.2022L7.4774 10.2003L7.55373 9.97143C7.56362 9.94182 7.60549 9.94182 7.61537 9.97143Z" fill="#F5F5F5"/>
<path d="M8.54488 5.79177L8.62121 6.02067L8.86249 6.02251C8.89374 6.02278 8.90667 6.06263 8.88156 6.08118L8.68746 6.2245L8.76027 6.45454C8.76972 6.48431 8.73578 6.50899 8.71035 6.49079L8.51406 6.35048L8.31777 6.49079C8.29234 6.50899 8.25847 6.48431 8.26785 6.45454L8.34066 6.2245L8.14656 6.08118C8.12144 6.06259 8.13437 6.02274 8.16562 6.02251L8.40691 6.02067L8.48324 5.79177C8.49304 5.76212 8.53499 5.76212 8.54488 5.79177Z" fill="#F5F5F5"/>
<path d="M8.54488 6.98885L8.62121 7.21776L8.86249 7.21959C8.89374 7.21987 8.90667 7.25967 8.88156 7.27827L8.68746 7.42163L8.76027 7.65166C8.76972 7.68143 8.73578 7.70612 8.71035 7.68791L8.51406 7.5476L8.31777 7.68791C8.29234 7.70608 8.25847 7.68143 8.26785 7.65166L8.34066 7.42163L8.14656 7.27827C8.12144 7.25967 8.13437 7.21987 8.16562 7.21959L8.40691 7.21776L8.48324 6.98885C8.49304 6.95924 8.53499 6.95924 8.54488 6.98885Z" fill="#F5F5F5"/>
<path d="M8.54488 8.18679L8.62121 8.41569L8.86249 8.41753C8.89374 8.4178 8.90667 8.45761 8.88156 8.4762L8.68746 8.61956L8.76027 8.8496C8.76972 8.87937 8.73578 8.90405 8.71035 8.88585L8.51406 8.74554L8.31777 8.88585C8.29234 8.90401 8.25847 8.8794 8.26785 8.8496L8.34066 8.61956L8.14656 8.4762C8.12144 8.45761 8.13437 8.4178 8.16562 8.41753L8.40691 8.41569L8.48324 8.18679C8.49304 8.15714 8.53499 8.15714 8.54488 8.18679Z" fill="#F5F5F5"/>
<path d="M8.54488 9.3839L8.62121 9.61281L8.86249 9.61464C8.89374 9.61492 8.90667 9.65476 8.88156 9.67331L8.68746 9.81667L8.76027 10.0467C8.76972 10.0765 8.73578 10.1012 8.71035 10.083L8.51406 9.94265L8.31777 10.083C8.29234 10.1011 8.25847 10.0765 8.26785 10.0467L8.34066 9.81667L8.14656 9.67331C8.12144 9.6548 8.13437 9.61492 8.16562 9.61464L8.40691 9.61281L8.48324 9.3839C8.49304 9.35425 8.53499 9.35425 8.54488 9.3839Z" fill="#F5F5F5"/>
<path d="M8.54488 10.5818L8.62121 10.8107L8.86249 10.8125C8.89374 10.8128 8.90667 10.8526 8.88156 10.8712L8.68746 11.0146L8.76027 11.2446C8.76972 11.2744 8.73578 11.299 8.71035 11.2808L8.51406 11.1405L8.31777 11.2808C8.29234 11.299 8.25847 11.2744 8.26785 11.2446L8.34066 11.0146L8.14656 10.8712C8.12144 10.8526 8.13437 10.8128 8.16562 10.8125L8.40691 10.8107L8.48324 10.5818C8.49304 10.5522 8.53499 10.5522 8.54488 10.5818Z" fill="#F5F5F5"/>
<path d="M9.4742 6.3785L9.55053 6.60741L9.79182 6.60924C9.82307 6.60952 9.836 6.64936 9.81088 6.66791L9.61678 6.81127L9.68959 7.04131C9.69904 7.07108 9.6651 7.09577 9.63967 7.07756L9.44338 6.93725L9.24709 7.07756C9.22166 7.09573 9.18779 7.07108 9.19717 7.04131L9.26998 6.81127L9.07588 6.66791C9.05076 6.64932 9.06369 6.60952 9.09494 6.60924L9.33623 6.60741L9.41256 6.3785C9.4224 6.34889 9.46432 6.34889 9.4742 6.3785Z" fill="#F5F5F5"/>
<path d="M9.4742 7.57644L9.55053 7.80534L9.79182 7.80718C9.82307 7.80745 9.836 7.8473 9.81088 7.86585L9.61678 8.00921L9.68959 8.23925C9.69904 8.26901 9.6651 8.2937 9.63967 8.2755L9.44338 8.13519L9.24709 8.2755C9.22166 8.29366 9.18779 8.26905 9.19717 8.23925L9.26998 8.00921L9.07588 7.86585C9.05076 7.84733 9.06369 7.80745 9.09494 7.80718L9.33623 7.80534L9.41256 7.57644C9.4224 7.54679 9.46432 7.54679 9.4742 7.57644Z" fill="#F5F5F5"/>
<path d="M9.4742 8.77355L9.55053 9.00245L9.79182 9.00429C9.82307 9.00456 9.836 9.04437 9.81088 9.06296L9.61678 9.20632L9.68959 9.43636C9.69904 9.46613 9.6651 9.49081 9.63967 9.47261L9.44338 9.3323L9.24709 9.47261C9.22166 9.49077 9.18779 9.46613 9.19717 9.43636L9.26998 9.20632L9.07588 9.06296C9.05076 9.04437 9.06369 9.00456 9.09494 9.00429L9.33623 9.00245L9.41256 8.77355C9.4224 8.7439 9.46432 8.7439 9.4742 8.77355Z" fill="#F5F5F5"/>
<path d="M9.4742 9.97143L9.55053 10.2003L9.79182 10.2022C9.82307 10.2024 9.836 10.2422 9.81088 10.2608L9.61678 10.4042L9.68959 10.6342C9.69904 10.664 9.6651 10.6887 9.63967 10.6705L9.44338 10.5302L9.24709 10.6705C9.22166 10.6887 9.18779 10.664 9.19717 10.6342L9.26998 10.4042L9.07588 10.2608C9.05076 10.2422 9.06369 10.2024 9.09494 10.2022L9.33623 10.2003L9.41256 9.97143C9.4224 9.94182 9.46432 9.94182 9.4742 9.97143Z" fill="#F5F5F5"/>
<path d="M10.4037 5.79177L10.48 6.02067L10.7213 6.02251C10.7526 6.02278 10.7655 6.06263 10.7404 6.08118L10.5463 6.2245L10.6191 6.45454C10.6285 6.48431 10.5946 6.50899 10.5692 6.49079L10.3729 6.35048L10.1766 6.49079C10.1512 6.50899 10.1173 6.48431 10.1267 6.45454L10.1995 6.2245L10.0054 6.08118C9.98027 6.06259 9.9932 6.02274 10.0244 6.02251L10.2657 6.02067L10.3421 5.79177C10.3519 5.76212 10.3938 5.76212 10.4037 5.79177Z" fill="#F5F5F5"/>
<path d="M10.4037 6.98885L10.48 7.21776L10.7213 7.21959C10.7526 7.21987 10.7655 7.25967 10.7404 7.27827L10.5463 7.42163L10.6191 7.65166C10.6285 7.68143 10.5946 7.70612 10.5692 7.68791L10.3729 7.5476L10.1766 7.68791C10.1512 7.70608 10.1173 7.68143 10.1267 7.65166L10.1995 7.42163L10.0054 7.27827C9.98027 7.25967 9.9932 7.21987 10.0244 7.21959L10.2657 7.21776L10.3421 6.98885C10.3519 6.95924 10.3938 6.95924 10.4037 6.98885Z" fill="#F5F5F5"/>
<path d="M10.4037 8.18679L10.48 8.41569L10.7213 8.41753C10.7526 8.4178 10.7655 8.45761 10.7404 8.4762L10.5463 8.61956L10.6191 8.8496C10.6285 8.87937 10.5946 8.90405 10.5692 8.88585L10.3729 8.74554L10.1766 8.88585C10.1512 8.90401 10.1173 8.8794 10.1267 8.8496L10.1995 8.61956L10.0054 8.4762C9.98027 8.45761 9.9932 8.4178 10.0244 8.41753L10.2657 8.41569L10.3421 8.18679C10.3519 8.15714 10.3938 8.15714 10.4037 8.18679Z" fill="#F5F5F5"/>
<path d="M10.4037 9.3839L10.48 9.61281L10.7213 9.61464C10.7526 9.61492 10.7655 9.65476 10.7404 9.67331L10.5463 9.81667L10.6191 10.0467C10.6285 10.0765 10.5946 10.1012 10.5692 10.083L10.3729 9.94265L10.1766 10.083C10.1512 10.1011 10.1173 10.0765 10.1267 10.0467L10.1995 9.81667L10.0054 9.67331C9.98027 9.6548 9.9932 9.61492 10.0244 9.61464L10.2657 9.61281L10.3421 9.3839C10.3519 9.35425 10.3938 9.35425 10.4037 9.3839Z" fill="#F5F5F5"/>
<path d="M10.4037 10.5818L10.48 10.8107L10.7213 10.8125C10.7526 10.8128 10.7655 10.8526 10.7404 10.8712L10.5463 11.0146L10.6191 11.2446C10.6285 11.2744 10.5946 11.299 10.5692 11.2808L10.3729 11.1405L10.1766 11.2808C10.1512 11.299 10.1173 11.2744 10.1267 11.2446L10.1995 11.0146L10.0054 10.8712C9.98027 10.8526 9.9932 10.8128 10.0244 10.8125L10.2657 10.8107L10.3421 10.5818C10.3519 10.5522 10.3938 10.5522 10.4037 10.5818Z" fill="#F5F5F5"/>
</svg>
