<svg width="24" height="24" viewBox="0 0 24 24" fill="none" xmlns="http://www.w3.org/2000/svg">
<path d="M20.5021 5H3.49785C2.67059 5 2 5.67059 2 6.49785V8.97984H22V6.49785C22 5.67059 21.3294 5 20.5021 5Z" fill="#82AFFF"/>
<path d="M2 16.6055C2 17.4328 2.67059 18.1034 3.49785 18.1034H20.5021C21.3294 18.1034 22 17.4328 22 16.6055V14.1235H2V16.6055Z" fill="#73AF00"/>
<path d="M22 9.52475H2V13.579H22V9.52475Z" fill="#F5F5F5"/>
<path d="M2 9.36832V9.52496H22V9.36832V8.98032H2V9.36832Z" fill="#FF4B55"/>
<path d="M2 13.7356V14.1236H22V13.7356V13.5789H2V13.7356Z" fill="#FF4B55"/>
<path d="M6.43326 8.27321C5.72732 8.27321 5.15509 7.70235 5.15509 6.99895C5.15509 6.29297 5.72728 5.71954 6.43326 5.71954C6.43599 5.71954 6.43865 5.71954 6.44131 5.71958C6.48287 5.72012 6.49744 5.66493 6.4608 5.64528C6.24341 5.52875 5.99533 5.46282 5.73158 5.46473C4.88689 5.47075 4.20076 6.17071 4.20974 7.0154C4.21857 7.85137 4.90201 8.52805 5.74263 8.52805C6.00275 8.52805 6.24736 8.46223 6.46205 8.34731C6.49857 8.32774 6.48381 8.27254 6.4424 8.27313C6.43927 8.27321 6.43627 8.27321 6.43326 8.27321Z" fill="#F5F5F5"/>
<path d="M7.43403 7.92091L7.37696 8.09208L7.19653 8.09345C7.17317 8.0936 7.16349 8.12345 7.18228 8.13731L7.32743 8.2445L7.27298 8.41653C7.26595 8.4388 7.2913 8.45724 7.31032 8.44364L7.45712 8.33872L7.60392 8.44364C7.62294 8.45724 7.64825 8.4388 7.64126 8.41653L7.58681 8.2445L7.73192 8.13731C7.75071 8.12345 7.74103 8.0936 7.71767 8.09345L7.53724 8.09208L7.48017 7.92091C7.47278 7.89876 7.44146 7.89876 7.43403 7.92091Z" fill="#F5F5F5"/>
<path d="M8.70527 7.92091L8.6482 8.09208L8.46777 8.09345C8.44441 8.0936 8.43473 8.12345 8.45352 8.13731L8.59863 8.2445L8.54418 8.41653C8.53715 8.4388 8.5625 8.45724 8.58152 8.44364L8.72832 8.33872L8.87512 8.44364C8.89414 8.45724 8.91945 8.4388 8.91246 8.41653L8.85801 8.2445L9.00313 8.13731C9.02191 8.12345 9.01223 8.0936 8.98887 8.09345L8.80844 8.09208L8.75137 7.92091C8.74398 7.89876 8.71262 7.89876 8.70527 7.92091Z" fill="#F5F5F5"/>
<path d="M9.97645 7.92091L9.91938 8.09208L9.73895 8.09345C9.71559 8.0936 9.70591 8.12345 9.7247 8.13731L9.86985 8.2445L9.8154 8.41653C9.80837 8.4388 9.83372 8.45724 9.85274 8.44364L9.99954 8.33872L10.1463 8.44364C10.1654 8.45724 10.1907 8.4388 10.1837 8.41653L10.1292 8.2445L10.2743 8.13731C10.2931 8.12345 10.2834 8.0936 10.2601 8.09345L10.0797 8.09208L10.0226 7.92091C10.0152 7.89876 9.98384 7.89876 9.97645 7.92091Z" fill="#F5F5F5"/>
<path d="M11.2476 7.92091L11.1906 8.09208L11.0101 8.09345C10.9868 8.0936 10.9771 8.12345 10.9959 8.13731L11.141 8.2445L11.0865 8.41653C11.0795 8.4388 11.1049 8.45724 11.1239 8.44364L11.2707 8.33872L11.4175 8.44364C11.4365 8.45724 11.4618 8.4388 11.4548 8.41653L11.4004 8.2445L11.5455 8.13731C11.5643 8.12345 11.5546 8.0936 11.5312 8.09345L11.3508 8.09208L11.2937 7.92091C11.2864 7.89876 11.255 7.89876 11.2476 7.92091Z" fill="#F5F5F5"/>
<path d="M12.5189 7.92091L12.4618 8.09208L12.2814 8.09345C12.258 8.0936 12.2483 8.12345 12.2671 8.13731L12.4123 8.2445L12.3578 8.41653C12.3508 8.4388 12.3761 8.45724 12.3952 8.44364L12.542 8.33872L12.6888 8.44364C12.7078 8.45724 12.7331 8.4388 12.7261 8.41653L12.6716 8.2445L12.8168 8.13731C12.8356 8.12345 12.8259 8.0936 12.8025 8.09345L12.6221 8.09208L12.565 7.92091C12.5576 7.89876 12.5263 7.89876 12.5189 7.92091Z" fill="#F5F5F5"/>
<path d="M8.70527 6.73444L8.6482 6.90562L8.46777 6.90698C8.44441 6.90714 8.43473 6.93698 8.45352 6.95085L8.59863 7.05804L8.54418 7.23007C8.53715 7.25233 8.5625 7.27077 8.58152 7.25718L8.72832 7.15226L8.87512 7.25718C8.89414 7.27077 8.91945 7.25233 8.91246 7.23007L8.85801 7.05804L9.00313 6.95085C9.02191 6.93698 9.01223 6.90714 8.98887 6.90698L8.80844 6.90562L8.75137 6.73444C8.74398 6.71222 8.71262 6.71222 8.70527 6.73444Z" fill="#F5F5F5"/>
<path d="M9.97645 6.73444L9.91938 6.90562L9.73895 6.90698C9.71559 6.90714 9.70591 6.93698 9.7247 6.95085L9.86985 7.05804L9.8154 7.23007C9.80837 7.25233 9.83372 7.27077 9.85274 7.25718L9.99954 7.15226L10.1463 7.25718C10.1654 7.27077 10.1907 7.25233 10.1837 7.23007L10.1292 7.05804L10.2743 6.95085C10.2931 6.93698 10.2834 6.90714 10.2601 6.90698L10.0797 6.90562L10.0226 6.73444C10.0152 6.71222 9.98384 6.71222 9.97645 6.73444Z" fill="#F5F5F5"/>
<path d="M11.2476 6.73444L11.1906 6.90562L11.0101 6.90698C10.9868 6.90714 10.9771 6.93698 10.9959 6.95085L11.141 7.05804L11.0865 7.23007C11.0795 7.25233 11.1049 7.27077 11.1239 7.25718L11.2707 7.15226L11.4175 7.25718C11.4365 7.27077 11.4618 7.25233 11.4548 7.23007L11.4004 7.05804L11.5455 6.95085C11.5643 6.93698 11.5546 6.90714 11.5312 6.90698L11.3508 6.90562L11.2937 6.73444C11.2864 6.71222 11.255 6.71222 11.2476 6.73444Z" fill="#F5F5F5"/>
<path d="M12.5189 6.73444L12.4618 6.90562L12.2814 6.90698C12.258 6.90714 12.2483 6.93698 12.2671 6.95085L12.4123 7.05804L12.3578 7.23007C12.3508 7.25233 12.3761 7.27077 12.3952 7.25718L12.542 7.15226L12.6888 7.25718C12.7078 7.27077 12.7331 7.25233 12.7261 7.23007L12.6716 7.05804L12.8168 6.95085C12.8356 6.93698 12.8259 6.90714 12.8025 6.90698L12.6221 6.90562L12.565 6.73444C12.5576 6.71222 12.5263 6.71222 12.5189 6.73444Z" fill="#F5F5F5"/>
<path d="M9.97645 7.92091L9.91938 8.09208L9.73895 8.09345C9.71559 8.0936 9.70591 8.12345 9.7247 8.13731L9.86985 8.2445L9.8154 8.41653C9.80837 8.4388 9.83372 8.45724 9.85274 8.44364L9.99954 8.33872L10.1463 8.44364C10.1654 8.45724 10.1907 8.4388 10.1837 8.41653L10.1292 8.2445L10.2743 8.13731C10.2931 8.12345 10.2834 8.0936 10.2601 8.09345L10.0797 8.09208L10.0226 7.92091C10.0152 7.89876 9.98384 7.89876 9.97645 7.92091Z" fill="#F5F5F5"/>
<path d="M9.97645 5.54786L9.91938 5.71903L9.73895 5.7204C9.71559 5.72056 9.70591 5.7504 9.7247 5.76427L9.86985 5.87145L9.8154 6.04349C9.80837 6.06575 9.83372 6.08419 9.85274 6.0706L9.99954 5.96567L10.1463 6.0706C10.1654 6.08419 10.1907 6.06575 10.1837 6.04349L10.1292 5.87145L10.2743 5.76427C10.2931 5.7504 10.2834 5.72056 10.2601 5.7204L10.0797 5.71903L10.0226 5.54786C10.0152 5.52571 9.98384 5.52571 9.97645 5.54786Z" fill="#F5F5F5"/>
<path d="M11.2476 7.92091L11.1906 8.09208L11.0101 8.09345C10.9868 8.0936 10.9771 8.12345 10.9959 8.13731L11.141 8.2445L11.0865 8.41653C11.0795 8.4388 11.1049 8.45724 11.1239 8.44364L11.2707 8.33872L11.4175 8.44364C11.4365 8.45724 11.4618 8.4388 11.4548 8.41653L11.4004 8.2445L11.5455 8.13731C11.5643 8.12345 11.5546 8.0936 11.5312 8.09345L11.3508 8.09208L11.2937 7.92091C11.2864 7.89876 11.255 7.89876 11.2476 7.92091Z" fill="#F5F5F5"/>
<path d="M12.5189 7.92091L12.4618 8.09208L12.2814 8.09345C12.258 8.0936 12.2483 8.12345 12.2671 8.13731L12.4123 8.2445L12.3578 8.41653C12.3508 8.4388 12.3761 8.45724 12.3952 8.44364L12.542 8.33872L12.6888 8.44364C12.7078 8.45724 12.7331 8.4388 12.7261 8.41653L12.6716 8.2445L12.8168 8.13731C12.8356 8.12345 12.8259 8.0936 12.8025 8.09345L12.6221 8.09208L12.565 7.92091C12.5576 7.89876 12.5263 7.89876 12.5189 7.92091Z" fill="#F5F5F5"/>
<path d="M11.2476 5.54786L11.1906 5.71903L11.0101 5.7204C10.9868 5.72056 10.9771 5.7504 10.9959 5.76427L11.141 5.87145L11.0865 6.04349C11.0795 6.06575 11.1049 6.08419 11.1239 6.0706L11.2707 5.96567L11.4175 6.0706C11.4365 6.08419 11.4618 6.06575 11.4548 6.04349L11.4004 5.87145L11.5455 5.76427C11.5643 5.7504 11.5546 5.72056 11.5312 5.7204L11.3508 5.71903L11.2937 5.54786C11.2864 5.52571 11.255 5.52571 11.2476 5.54786Z" fill="#F5F5F5"/>
<path d="M12.5189 5.54786L12.4618 5.71903L12.2814 5.7204C12.258 5.72056 12.2483 5.7504 12.2671 5.76427L12.4123 5.87145L12.3578 6.04349C12.3508 6.06575 12.3761 6.08419 12.3952 6.0706L12.542 5.96567L12.6888 6.0706C12.7078 6.08419 12.7331 6.06575 12.7261 6.04349L12.6716 5.87145L12.8168 5.76427C12.8356 5.7504 12.8259 5.72056 12.8025 5.7204L12.6221 5.71903L12.565 5.54786C12.5576 5.52571 12.5263 5.52571 12.5189 5.54786Z" fill="#F5F5F5"/>
</svg>
